<?xml version="1.0" encoding="utf-8"?>
<!-- Generator: Adobe Illustrator 19.0.0, SVG Export Plug-In . SVG Version: 6.00 Build 0)  -->
<svg version="1.1" id="Layer_1" xmlns="http://www.w3.org/2000/svg" xmlns:xlink="http://www.w3.org/1999/xlink" x="0px" y="0px"
	 viewBox="0 0 381.7 146" style="enable-background:new 0 0 381.7 146;" xml:space="preserve">
<style type="text/css">
	.st0{fill:#FFFFFF;}
	.st1{fill-rule:evenodd;clip-rule:evenodd;fill:#FFFFFF;}
</style>
<g>
	<g>
		<circle class="st0" cx="9.7" cy="9.7" r="6.9"/>
	</g>
	<path class="st1" d="M253.3,71.1c0-4.9-0.5-9.1-1.5-12.9c-1-3.7-2.4-6.8-4.2-9.3c-1.7-2.5-3.8-4.4-6.2-5.6
		c-2.4-1.3-4.9-1.9-7.7-1.9c-2.7,0-5.3,0.6-7.7,1.9c-2.4,1.3-4.4,3.1-6.2,5.6c-1.7,2.5-3.1,5.6-4.1,9.3c-1,3.7-1.5,8-1.5,12.9
		c0,4.9,0.5,9.2,1.5,12.9c1,3.7,2.4,6.8,4.2,9.2c1.8,2.5,3.8,4.4,6.2,5.6c2.4,1.3,5,1.9,7.8,1.9c2.7,0,5.3-0.6,7.6-1.9
		c2.4-1.3,4.4-3.1,6.2-5.6c1.8-2.5,3.2-5.6,4.2-9.2C252.8,80.3,253.3,76,253.3,71.1z M262.4,75.1c0,4.5,0,26.6-0.1,27.5
		c-0.5,11.4-1.3,17.6-7.7,25.9c-6.7,8.7-13.5,12.3-24.3,14.3c-5.6,1-14.7,0-14.7,0v-9.6c0,0,9.1,1.4,14.7,0
		c7.6-1.9,12.2-4.7,16.9-11c4.7-6.4,5.2-15.6,5.4-19.6c-2,2.3-4.4,4.2-7,5.6c-3.5,2-7.5,2.9-11.8,2.9c-4.5,0-8.6-1-12.2-2.9
		c-3.6-2-6.6-4.8-9.1-8.3c-2.5-3.5-4.4-7.8-5.7-12.7c-1.3-4.9-2-10.3-2-16.1c0-5.9,0.7-11.3,2-16.2c1.4-4.9,3.3-9.2,5.8-12.7
		c2.5-3.5,5.5-6.3,9.1-8.3c3.5-2,7.5-3,11.9-3c4.5,0,8.5,1,12.1,3c3.6,2,6.6,4.7,9.1,8.3c2.5,3.5,4.4,7.8,5.7,12.7
		c1.3,4.9,2,10.3,2,16.2C262.5,72.5,262.5,73.8,262.4,75.1z"/>
	<path class="st1" d="M188.4,71.1c0-4.9-0.5-9.1-1.5-12.9c-1-3.7-2.4-6.8-4.2-9.3c-1.7-2.5-3.8-4.4-6.2-5.6
		c-2.4-1.3-4.9-1.9-7.7-1.9s-5.3,0.6-7.7,1.9c-2.4,1.3-4.4,3.1-6.2,5.6c-1.7,2.5-3.1,5.6-4.1,9.3c-1,3.7-1.5,8-1.5,12.9
		c0,4.9,0.5,9.2,1.5,12.9c1,3.7,2.4,6.8,4.2,9.2c1.8,2.5,3.8,4.4,6.2,5.6c2.4,1.3,5,1.9,7.8,1.9c2.7,0,5.3-0.6,7.6-1.9
		c2.4-1.3,4.4-3.1,6.2-5.6c1.8-2.5,3.2-5.6,4.2-9.2C187.9,80.3,188.4,76,188.4,71.1z M197.7,71.1c0,5.9-0.7,11.2-2,16.1
		c-1.3,4.9-3.3,9.1-5.8,12.7c-2.5,3.5-5.5,6.3-9.1,8.3c-3.5,2-7.5,2.9-11.8,2.9c-4.5,0-8.6-1-12.2-2.9c-3.6-2-6.6-4.8-9.1-8.3
		c-2.5-3.5-4.4-7.8-5.7-12.7c-1.3-4.9-2-10.3-2-16.1c0-5.9,0.7-11.3,2-16.2c1.4-4.9,3.3-9.2,5.8-12.7c2.5-3.5,5.5-6.3,9.1-8.3
		c3.5-2,7.5-3,11.9-3c4.5,0,8.5,1,12.1,3c3.6,2,6.6,4.7,9.1,8.3c2.5,3.5,4.4,7.8,5.7,12.7C197.1,59.8,197.7,65.2,197.7,71.1z"/>
	<path class="st0" d="M126.4,37.7c3.7-1.9,8.1-2.7,12.8-2.5l-0.4,9.3c0,0-1.5-0.1-3.4,0.1c-5.4,0.5-9,3.1-9,9.3l0,34.7
		c0,10.8-2.2,22.6-15.6,22.6c-14.1,0-15.7-14.3-15.7-24.8V61.6c0-9.7-3.3-22.1-15.9-22.1c-12.6,0-14.8,12.2-14.8,22.1v24.8
		c0,10.6-1.6,24.8-15.7,24.8c-13.2,0-15.9-11.5-15.9-22.6V29c0-6.7,0.5-9.5-7.5-10.1L26,9.5c0,0,1.5,0.1,3.3,0.5
		c11,2.2,12.9,8.4,12.9,19v59.7c0,11.3,2.6,13.2,6.5,13.2c6.9,0,6.3-11.2,6.3-15.5V61.6c0-15.3,5.7-31.4,24.2-31.4
		c22.1,0,25.3,22.3,25.3,31.4v24.8c0,4.3-0.5,15.5,6.3,15.5c3.8,0,6.2-1.7,6.2-13.2V29c0-15.1,9-21.1,22.8-21l0,9.4c0,0-2,0-4.4,0.4
		c-7.7,1.2-9,4.1-9,11.3L126.4,37.7z"/>
	<path class="st0" d="M280.2,63.6V54c0-7.8-5.8-9.7-12.4-9.4l-0.4-9.3c0,0,2.1-0.1,4.6,0.1c6.4,0.6,11.7,3.5,14.7,8.3
		c6.3-8.1,16.3-13.7,25.9-15.2c2.9-0.5,5.1-0.6,5.1-0.6l0.8,9.3c0,0-1.9,0.2-4.4,0.5c-11.1,1.8-24.6,11.6-24.6,23.9v24.8
		c0,10.6-1.6,24.8-15.7,24.8v-9.4c6.9,0,6.3-11.2,6.3-15.5L280.2,63.6z"/>
	<path class="st0" d="M337.2,47.6c-5.8-5.4-9.9-10.4-9.9-18.6c0-27.6,43.1-28.7,43.1,0.5c0,27.1-41.1,30.7-41.1,53.3
		c0,10.8,9,19.5,20,19.5c16.8,0,25.5-17.6,15.7-30.7c-2.4-3.2-5.3-5.9-8.3-8.6l6.3-6.9c7.8,7.1,16.2,15.8,15.7,27.3
		c-0.7,15.8-13.5,28.2-29.5,28.2c-15.9,0-29.4-12.7-29.4-28.9c0-28.6,41.1-33,41.1-53.3c0-16.9-24.4-15.7-24.4-0.5
		c0,4.1,1.6,6.8,6.9,11.7L337.2,47.6z"/>
</g>
</svg>
