<?xml version="1.0" encoding="utf-8"?>
<!-- Generator: Adobe Illustrator 19.0.0, SVG Export Plug-In . SVG Version: 6.00 Build 0)  -->
<svg version="1.1" id="Layer_1" xmlns="http://www.w3.org/2000/svg" xmlns:xlink="http://www.w3.org/1999/xlink" x="0px" y="0px"
	 viewBox="10.7 342 120.7 135.3" style="enable-background:new 10.7 342 120.7 135.3;" xml:space="preserve">
<style type="text/css">
	.st0{fill:url(#SVGID_1_);}
	.st1{fill:url(#SVGID_2_);}
	.st2{fill:url(#SVGID_3_);}
	.st3{fill:#5BCBF5;}
	.st4{font-family:'OpenSans-Light';}
	.st5{font-size:24px;}
</style>
<linearGradient id="SVGID_1_" gradientUnits="userSpaceOnUse" x1="40.2626" y1="368.75" x2="184.5629" y2="368.75" gradientTransform="matrix(1 0 0 -1 0 796)">
	<stop  offset="0" style="stop-color:#57CBF5"/>
	<stop  offset="1" style="stop-color:#466AB2"/>
</linearGradient>
<polygon class="st0" points="99.1,414 72.9,440.5 46.4,414 "/>
<linearGradient id="SVGID_2_" gradientUnits="userSpaceOnUse" x1="13.984" y1="407.8" x2="122.8605" y2="407.8" gradientTransform="matrix(1 0 0 -1 0 796)">
	<stop  offset="0" style="stop-color:#5BCBF5"/>
	<stop  offset="1" style="stop-color:#426AB3"/>
</linearGradient>
<path class="st1" d="M72.8,425.6c-20.1,0-36.5-16.8-36.5-37.4c0-20.6,16.4-37.4,36.5-37.4c11.5,0,22,5.4,29,14.7
	c2.9,3.9,2.1,9.4-1.8,12.3c-3.9,2.9-9.4,2.1-12.3-1.8c-3.6-4.9-9-7.6-14.9-7.6c-10.4,0-18.9,8.9-18.9,19.8
	c0,10.9,8.5,19.8,18.9,19.8c5.9,0,11.4-2.8,15-7.8c2.9-3.9,8.4-4.8,12.3-1.9c3.9,2.9,4.8,8.4,1.9,12.3
	C95,420.1,84.4,425.6,72.8,425.6z"/>
<linearGradient id="SVGID_3_" gradientUnits="userSpaceOnUse" x1="126.0975" y1="385.0603" x2="8.7355" y2="385.0603" gradientTransform="matrix(1 0 0 -1 0 796)">
	<stop  offset="0" style="stop-color:#5BCBF5"/>
	<stop  offset="1" style="stop-color:#436AB3"/>
</linearGradient>
<path class="st2" d="M100.1,398.2c-3.8-2.8-9-2.1-11.9,1.5c-1.8,2.6-4.2,4.7-7,6.2c0,0-0.1,0-0.1,0.1c-0.5,0.3-1.1,0.5-1.6,0.7
	c-0.2,0.1-0.3,0.1-0.5,0.2c-0.3,0.1-0.6,0.2-0.9,0.3c-0.4,0.1-0.7,0.2-1.1,0.3c-0.2,0.1-0.5,0.1-0.7,0.2c-0.4,0.1-0.9,0.2-1.3,0.2
	c-0.2,0-0.3,0-0.5,0c-0.5,0-1,0.1-1.5,0.1h-0.1l0,0l0,0h-0.1c-0.5,0-1,0-1.5-0.1c-0.2,0-0.3,0-0.5,0c-0.5-0.1-0.9-0.1-1.3-0.2
	c-0.2,0-0.5-0.1-0.7-0.2c-0.4-0.1-0.8-0.2-1.1-0.3c-0.3-0.1-0.6-0.2-0.9-0.3c-0.2-0.1-0.3-0.1-0.5-0.2c-0.5-0.2-1.1-0.5-1.6-0.7
	c0,0-0.1,0-0.1-0.1c-2.8-1.4-5.2-3.6-7-6.2c-3-3.5-8.2-4.2-11.9-1.5c-3.9,2.9-4.8,8.4-1.9,12.3c2.6,3.5,5.7,6.5,9.1,8.8
	c0.2,0.1,0.3,0.2,0.5,0.3c0.4,0.2,0.7,0.5,1.1,0.7c0.2,0.2,0.5,0.3,0.8,0.4c0.3,0.2,0.6,0.3,0.9,0.5c0.3,0.2,0.6,0.3,0.9,0.5
	c0.3,0.1,0.6,0.3,0.9,0.4c0.3,0.1,0.6,0.3,0.9,0.4c0.6,0.2,1.1,0.5,1.7,0.7c0.2,0.1,0.5,0.2,0.7,0.2c0.4,0.1,0.8,0.3,1.2,0.4
	c0.2,0.1,0.5,0.1,0.7,0.2c0.4,0.1,0.9,0.2,1.3,0.3c0.2,0.1,0.4,0.1,0.6,0.1c0.5,0.1,0.9,0.2,1.4,0.3c0.2,0,0.4,0.1,0.5,0.1
	c0.5,0.1,1.1,0.2,1.6,0.2c0.1,0,0.3,0,0.4,0.1c0.6,0.1,1.2,0.1,1.9,0.2c0.1,0,0.1,0,0.2,0c0.7,0,1.4,0.1,2.1,0.1s1.4,0,2.1-0.1
	c0.1,0,0.1,0,0.2,0c0.6,0,1.2-0.1,1.9-0.2c0.1,0,0.3,0,0.4-0.1c0.5-0.1,1.1-0.1,1.6-0.2c0.2,0,0.4-0.1,0.5-0.1
	c0.5-0.1,0.9-0.2,1.4-0.3c0.2,0,0.4-0.1,0.6-0.1c0.4-0.1,0.9-0.2,1.3-0.3c0.2-0.1,0.5-0.1,0.7-0.2c0.4-0.1,0.8-0.3,1.2-0.4
	c0.2-0.1,0.5-0.2,0.7-0.2c0.6-0.2,1.1-0.4,1.7-0.7c0.3-0.1,0.6-0.3,0.9-0.4s0.6-0.3,0.9-0.4c0.3-0.1,0.6-0.3,0.9-0.5
	c0.3-0.2,0.6-0.3,0.9-0.5c0.3-0.1,0.5-0.3,0.8-0.4c0.4-0.2,0.7-0.4,1.1-0.7c0.2-0.1,0.3-0.2,0.5-0.3c3.4-2.3,6.5-5.3,9.1-8.8
	C104.9,406.6,104.1,401.1,100.1,398.2z"/>
<circle class="st3" cx="73.3" cy="388.7" r="10.1"/>
<text transform="matrix(1 0 0 1 21 473.333)" class="st3 st4 st5">LOADING</text>
</svg>
