<?xml version="1.0" encoding="utf-8"?>
<!-- Generator: Adobe Illustrator 19.0.0, SVG Export Plug-In . SVG Version: 6.00 Build 0)  -->
<svg version="1.1" id="Layer_1" xmlns="http://www.w3.org/2000/svg" xmlns:xlink="http://www.w3.org/1999/xlink" x="0px" y="0px"
	 viewBox="62.5 -1.8 25 25" style="enable-background:new 62.5 -1.8 25 25;" xml:space="preserve">
<style type="text/css">
	.st0{fill:#FFFFFF;}
</style>
<path class="st0" d="M75-0.4c-6.4,0-11.5,3.9-11.5,8.7c0,0.7,0.1,1.4,0.3,2.1c0.5,1.6,1.7,3.1,3.2,4.2c0,0.2,0,0.4,0,0.6
	c0,2.5-1.8,5.4-1.8,5.4c3.3-0.3,6.8-3.9,6.8-3.9s0,0,0,0c1,0.2,2,0.3,3,0.3c4.2,0,7.9-1.7,9.9-4.2c1-1.3,1.6-2.8,1.6-4.5
	C86.5,3.5,81.4-0.4,75-0.4z"/>
</svg>
