<?xml version="1.0" encoding="utf-8"?>
<!-- Generator: Adobe Illustrator 19.0.0, SVG Export Plug-In . SVG Version: 6.00 Build 0)  -->
<svg version="1.1" id="Layer_1" xmlns="http://www.w3.org/2000/svg" xmlns:xlink="http://www.w3.org/1999/xlink" x="0px" y="0px"
	 viewBox="0 0 50 50" style="enable-background:new 0 0 50 50;" xml:space="preserve">
<style type="text/css">
	.st0{clip-path:url(#XMLID_66_);}
	.st1{opacity:0;clip-path:url(#XMLID_73_);}
	.st2{opacity:0;}
	.st3{clip-path:url(#XMLID_73_);}
	.st4{clip-path:url(#XMLID_82_);}
	.st5{opacity:0;clip-path:url(#XMLID_84_);}
	.st6{clip-path:url(#XMLID_84_);}
	.st7{clip-path:url(#XMLID_87_);}
	.st8{opacity:0;clip-path:url(#XMLID_88_);}
	.st9{clip-path:url(#XMLID_88_);}
	.st10{clip-path:url(#XMLID_91_);}
	.st11{opacity:0;clip-path:url(#XMLID_92_);}
	.st12{clip-path:url(#XMLID_92_);}
	.st13{clip-path:url(#XMLID_95_);}
	.st14{opacity:0;clip-path:url(#XMLID_96_);}
	.st15{clip-path:url(#XMLID_96_);}
</style>
<g id="XMLID_28_">
	<defs>
		<path id="XMLID_29_" d="M31.8,12.7v3.4c0,3.7-3,6.8-6.8,6.8s-6.8-3-6.8-6.8v-4.5c0-0.6-0.5-1.1-1.1-1.1S16,10.9,16,11.6v4.5
			c0,5,4,9,9,9s9-4,9-9v-3.4c0-0.6-0.5-1.1-1.1-1.1S31.8,12.1,31.8,12.7z"/>
	</defs>
	<clipPath id="XMLID_66_">
		<use xlink:href="#XMLID_29_"  style="overflow:visible;"/>
	</clipPath>
	<g id="XMLID_30_" class="st0">
		<defs>
			<rect id="XMLID_31_" x="-276.5" y="-2119.2" width="1485" height="4664.2"/>
		</defs>
		<clipPath id="XMLID_73_">
			<use xlink:href="#XMLID_31_"  style="overflow:visible;"/>
		</clipPath>
		<g id="XMLID_33_" class="st1">
			<g id="XMLID_37_" class="st2">
				<g id="XMLID_42_">
					<defs>
						<rect id="XMLID_41_" x="-276.5" y="-2119.2" width="1485" height="4664.2"/>
					</defs>
					<clipPath id="XMLID_75_">
						<use xlink:href="#XMLID_41_"  style="overflow:visible;"/>
					</clipPath>
					<g style="clip-path:url(#XMLID_75_);">
						
							<image style="overflow:visible;" width="6188" height="19435" id="XMLID_44_" xlink:href="BB832A54A663530A.jpg"  transform="matrix(0.24 0 0 0.24 -276.5 -2119.1875)">
						</image>
					</g>
				</g>
			</g>
		</g>
		<g id="XMLID_32_" class="st3">
			<g id="XMLID_45_">
				<defs>
					<rect id="XMLID_43_" x="-276.5" y="-2119.2" width="1485" height="4664.2"/>
				</defs>
				<clipPath id="XMLID_76_">
					<use xlink:href="#XMLID_43_"  style="overflow:visible;"/>
				</clipPath>
				<g style="clip-path:url(#XMLID_76_);">
					
						<image style="overflow:visible;" width="6188" height="19435" id="XMLID_47_" xlink:href="BB832A54A663530E.jpg"  transform="matrix(0.24 0 0 0.24 -276.5 -2119.1875)">
					</image>
				</g>
			</g>
		</g>
	</g>
</g>
<g id="XMLID_20_">
	<defs>
		<path id="XMLID_21_" d="M31.8,27.5c-0.4-0.1-0.7,0.1-1,0.3l-6.6,6.6h1.6l-6.6-6.6c-0.3-0.3-0.6-0.4-1-0.3
			c-7.7,1.1-13.5,7.7-13.5,15.6v1.1c0,1.9,1.5,3.4,3.4,3.4h33.8c1.9,0,3.4-1.5,3.4-3.4v-1.1C45.2,35.2,39.5,28.6,31.8,27.5z
			 M31.4,29.7C38,30.6,43,36.3,43,43.1v1.1c0,0.6-0.5,1.1-1.1,1.1H8.1c-0.6,0-1.1-0.5-1.1-1.1v-1.1c0-6.7,5-12.4,11.6-13.4l-1-0.3
			l6.6,6.6c0.4,0.4,1.2,0.4,1.6,0l6.6-6.6L31.4,29.7z"/>
	</defs>
	<clipPath id="XMLID_82_">
		<use xlink:href="#XMLID_21_"  style="overflow:visible;"/>
	</clipPath>
	<g id="XMLID_24_" class="st4">
		<defs>
			<rect id="XMLID_25_" x="-276.5" y="-2119.2" width="1485" height="4664.2"/>
		</defs>
		<clipPath id="XMLID_84_">
			<use xlink:href="#XMLID_25_"  style="overflow:visible;"/>
		</clipPath>
		<g id="XMLID_27_" class="st5">
			<g id="XMLID_40_" class="st2">
				<g id="XMLID_51_">
					<defs>
						<rect id="XMLID_50_" x="-276.5" y="-2119.2" width="1485" height="4664.2"/>
					</defs>
					<clipPath id="XMLID_85_">
						<use xlink:href="#XMLID_50_"  style="overflow:visible;"/>
					</clipPath>
					<g style="clip-path:url(#XMLID_85_);">
						
							<image style="overflow:visible;" width="6188" height="19435" id="XMLID_53_" xlink:href="BB832A54A6635309.jpg"  transform="matrix(0.24 0 0 0.24 -276.5 -2119.1875)">
						</image>
					</g>
				</g>
			</g>
		</g>
		<g id="XMLID_26_" class="st6">
			<g id="XMLID_54_">
				<defs>
					<rect id="XMLID_52_" x="-276.5" y="-2119.2" width="1485" height="4664.2"/>
				</defs>
				<clipPath id="XMLID_86_">
					<use xlink:href="#XMLID_52_"  style="overflow:visible;"/>
				</clipPath>
				<g style="clip-path:url(#XMLID_86_);">
					
						<image style="overflow:visible;" width="6188" height="19435" id="XMLID_56_" xlink:href="BB832A54A663530B.jpg"  transform="matrix(0.24 0 0 0.24 -276.5 -2119.1875)">
					</image>
				</g>
			</g>
		</g>
	</g>
</g>
<g id="XMLID_14_">
	<defs>
		<path id="XMLID_15_" d="M31.8,12.7v-2.2c0-1.9-1.5-3.4-3.4-3.4c-0.6,0-1.1-0.5-1.1-1.1V2.6l1.3,1.1l-6.3,1.3
			c-2.2,0.4-4.1,2.7-4.1,4.9v2.8c0,0.6-0.5,1.1-1.1,1.1S16,13.3,16,12.7V9.9c0-3.3,2.6-6.5,5.9-7.2l6.3-1.3c0.7-0.1,1.3,0.4,1.3,1.1
			v3.4l-1.1-1.1c3.1,0,5.6,2.5,5.6,5.6v2.2c0,0.6-0.5,1.1-1.1,1.1S31.8,13.3,31.8,12.7z"/>
	</defs>
	<clipPath id="XMLID_87_">
		<use xlink:href="#XMLID_15_"  style="overflow:visible;"/>
	</clipPath>
	<g id="XMLID_16_" class="st7">
		<defs>
			<rect id="XMLID_17_" x="-276.5" y="-2119.2" width="1485" height="4664.2"/>
		</defs>
		<clipPath id="XMLID_88_">
			<use xlink:href="#XMLID_17_"  style="overflow:visible;"/>
		</clipPath>
		<g id="XMLID_19_" class="st8">
			<g id="XMLID_49_" class="st2">
				<g id="XMLID_60_">
					<defs>
						<rect id="XMLID_59_" x="-276.5" y="-2119.2" width="1485" height="4664.2"/>
					</defs>
					<clipPath id="XMLID_89_">
						<use xlink:href="#XMLID_59_"  style="overflow:visible;"/>
					</clipPath>
					<g style="clip-path:url(#XMLID_89_);">
						
							<image style="overflow:visible;" width="6188" height="19435" id="XMLID_62_" xlink:href="BB832A54A6635308.jpg"  transform="matrix(0.24 0 0 0.24 -276.5 -2119.1875)">
						</image>
					</g>
				</g>
			</g>
		</g>
		<g id="XMLID_18_" class="st9">
			<g id="XMLID_63_">
				<defs>
					<rect id="XMLID_61_" x="-276.5" y="-2119.2" width="1485" height="4664.2"/>
				</defs>
				<clipPath id="XMLID_90_">
					<use xlink:href="#XMLID_61_"  style="overflow:visible;"/>
				</clipPath>
				<g style="clip-path:url(#XMLID_90_);">
					
						<image style="overflow:visible;" width="6188" height="19435" id="XMLID_65_" xlink:href="BB832A54A6635316.jpg"  transform="matrix(0.24 0 0 0.24 -276.5 -2119.1875)">
					</image>
				</g>
			</g>
		</g>
	</g>
</g>
<g id="XMLID_8_">
	<defs>
		<path id="XMLID_9_" d="M34,14.9c0-3.1-2.5-5.6-5.6-5.6h-6.8c-0.6,0-1.1,0.5-1.1,1.1s0.5,1.1,1.1,1.1h6.8c1.9,0,3.4,1.5,3.4,3.4
			c0,0.6,0.5,1.1,1.1,1.1S34,15.6,34,14.9z"/>
	</defs>
	<clipPath id="XMLID_91_">
		<use xlink:href="#XMLID_9_"  style="overflow:visible;"/>
	</clipPath>
	<g id="XMLID_10_" class="st10">
		<defs>
			<rect id="XMLID_11_" x="-276.5" y="-2119.2" width="1485" height="4664.2"/>
		</defs>
		<clipPath id="XMLID_92_">
			<use xlink:href="#XMLID_11_"  style="overflow:visible;"/>
		</clipPath>
		<g id="XMLID_13_" class="st11">
			<g id="XMLID_58_" class="st2">
				<g id="XMLID_69_">
					<defs>
						<rect id="XMLID_68_" x="-276.5" y="-2119.2" width="1485" height="4664.2"/>
					</defs>
					<clipPath id="XMLID_93_">
						<use xlink:href="#XMLID_68_"  style="overflow:visible;"/>
					</clipPath>
					<g style="clip-path:url(#XMLID_93_);">
						
							<image style="overflow:visible;" width="6188" height="19435" id="XMLID_71_" xlink:href="BB832A54A6635319.jpg"  transform="matrix(0.24 0 0 0.24 -276.5 -2119.1875)">
						</image>
					</g>
				</g>
			</g>
		</g>
		<g id="XMLID_12_" class="st12">
			<g id="XMLID_72_">
				<defs>
					<rect id="XMLID_70_" x="-276.5" y="-2119.2" width="1485" height="4664.2"/>
				</defs>
				<clipPath id="XMLID_94_">
					<use xlink:href="#XMLID_70_"  style="overflow:visible;"/>
				</clipPath>
				<g style="clip-path:url(#XMLID_94_);">
					
						<image style="overflow:visible;" width="6188" height="19435" id="XMLID_74_" xlink:href="BB832A54A663531A.jpg"  transform="matrix(0.24 0 0 0.24 -276.5 -2119.1875)">
					</image>
				</g>
			</g>
		</g>
	</g>
</g>
<g id="XMLID_2_">
	<defs>
		<path id="XMLID_3_" d="M17.1,9.3c1.1,1.4,2.7,2.3,4.5,2.3c0.6,0,1.1-0.5,1.1-1.1s-0.5-1.1-1.1-1.1c-1.1,0-2.1-0.5-2.7-1.4
			c-0.4-0.5-1.1-0.6-1.6-0.2C16.8,8.1,16.7,8.8,17.1,9.3z"/>
	</defs>
	<clipPath id="XMLID_95_">
		<use xlink:href="#XMLID_3_"  style="overflow:visible;"/>
	</clipPath>
	<g id="XMLID_4_" class="st13">
		<defs>
			<rect id="XMLID_5_" x="-276.5" y="-2119.2" width="1485" height="4664.2"/>
		</defs>
		<clipPath id="XMLID_96_">
			<use xlink:href="#XMLID_5_"  style="overflow:visible;"/>
		</clipPath>
		<g id="XMLID_7_" class="st14">
			<g id="XMLID_67_" class="st2">
				<g id="XMLID_78_">
					<defs>
						<rect id="XMLID_77_" x="-276.5" y="-2119.2" width="1485" height="4664.2"/>
					</defs>
					<clipPath id="XMLID_97_">
						<use xlink:href="#XMLID_77_"  style="overflow:visible;"/>
					</clipPath>
					<g style="clip-path:url(#XMLID_97_);">
						
							<image style="overflow:visible;" width="6188" height="19435" id="XMLID_80_" xlink:href="BB832A54A6635318.jpg"  transform="matrix(0.24 0 0 0.24 -276.5 -2119.1875)">
						</image>
					</g>
				</g>
			</g>
		</g>
		<g id="XMLID_6_" class="st15">
			<g id="XMLID_81_">
				<defs>
					<rect id="XMLID_79_" x="-276.5" y="-2119.2" width="1485" height="4664.2"/>
				</defs>
				<clipPath id="XMLID_98_">
					<use xlink:href="#XMLID_79_"  style="overflow:visible;"/>
				</clipPath>
				<g style="clip-path:url(#XMLID_98_);">
					
						<image style="overflow:visible;" width="6188" height="19435" id="XMLID_83_" xlink:href="19F51E3C0C5B00CD.jpg"  transform="matrix(0.24 0 0 0.24 -276.5 -2119.1875)">
					</image>
				</g>
			</g>
		</g>
	</g>
</g>
</svg>
