<?xml version="1.0" encoding="utf-8"?>
<!-- Generator: Adobe Illustrator 19.0.0, SVG Export Plug-In . SVG Version: 6.00 Build 0)  -->
<svg version="1.1" id="Layer_1" xmlns="http://www.w3.org/2000/svg" xmlns:xlink="http://www.w3.org/1999/xlink" x="0px" y="0px"
	 viewBox="-247 358.9 100 68.6" style="enable-background:new -247 358.9 100 68.6;" xml:space="preserve">
<style type="text/css">
	.st0{fill:#37474F;}
</style>
<g>
	<g>
		<path class="st0" d="M-212.9,421.4c-1.5,0-3.1-0.6-4.2-1.8l-24.1-24.1c-2.3-2.3-2.3-6.1,0-8.5l24.1-24.1c2.3-2.3,6.1-2.3,8.5,0
			c2.3,2.3,2.3,6.1,0,8.5l-19.8,19.8l19.8,19.8c2.3,2.3,2.3,6.1,0,8.5C-209.9,420.8-211.4,421.4-212.9,421.4z"/>
	</g>
	<g>
		<path class="st0" d="M-181.1,421.4c-1.5,0-3.1-0.6-4.2-1.8c-2.3-2.3-2.3-6.1,0-8.5l19.8-19.8l-19.8-19.8c-2.3-2.3-2.3-6.1,0-8.5
			c2.3-2.3,6.1-2.3,8.5,0l24.1,24.1c2.3,2.3,2.3,6.1,0,8.5l-24.1,24.1C-178,420.8-179.5,421.4-181.1,421.4z"/>
	</g>
</g>
</svg>
