<?xml version="1.0" encoding="utf-8"?>
<!-- Generator: Adobe Illustrator 19.0.0, SVG Export Plug-In . SVG Version: 6.00 Build 0)  -->
<svg version="1.1" id="Layer_1" xmlns="http://www.w3.org/2000/svg" xmlns:xlink="http://www.w3.org/1999/xlink" x="0px" y="0px"
	 viewBox="0 0 195 58" style="enable-background:new 0 0 195 58;" xml:space="preserve">
<style type="text/css">
	.st0{fill-rule:evenodd;clip-rule:evenodd;fill:#C41230;}
	.st1{fill:#F6A01A;}
	.st2{fill:#C41230;}
	.st3{fill-rule:evenodd;clip-rule:evenodd;fill:#FDD5A0;}
	.st4{opacity:0.65;}
	.st5{fill-rule:evenodd;clip-rule:evenodd;fill:#F6A01A;}
	.st6{opacity:0.4;}
</style>
<g>
	<g>
		<g>
			<g>
				<g>
					<g>
						<g>
							<path class="st0" d="M1.1,21.6C1.1,21.7,1.1,21.7,1.1,21.6c0,0.3,0,0.5,0,0.8c0,0.1,0,0.1,0,0.2c0,0.2,0,0.5,0.1,0.7
								c0,0,0,0.1,0,0.1c0,0.2,0.1,0.5,0.1,0.7c0,0,0,0.1,0,0.1c0,0.2,0.1,0.5,0.1,0.7c0,0,0,0.1,0,0.1c0.1,0.2,0.1,0.5,0.2,0.7
								c0,0,0,0.1,0,0.1c0.1,0.2,0.1,0.4,0.2,0.7c0,0.1,0,0.2,0.1,0.2c0.1,0.2,0.1,0.4,0.2,0.6c0,0.1,0.1,0.2,0.1,0.3
								c0.1,0.1,0.1,0.3,0.2,0.4c0.1,0.2,0.1,0.3,0.2,0.4c0,0.1,0.1,0.2,0.1,0.3c0.1,0.2,0.2,0.4,0.3,0.5c0,0.1,0.1,0.1,0.1,0.2
								c0.1,0.2,0.2,0.4,0.3,0.6c0,0,0,0.1,0.1,0.1C3.7,30.6,3.8,30.8,4,31c0,0,0,0,0,0.1c0.1,0.2,0.3,0.4,0.4,0.6c0,0,0,0,0,0.1
								C4.7,32,4.8,32.2,5,32.4c0,0,0,0,0.1,0.1c0.2,0.2,0.3,0.4,0.5,0.6c0,0,0.1,0.1,0.1,0.1c0.2,0.2,0.3,0.4,0.5,0.5c0,0,0,0,0,0
								c2.3-2.5,4-5.6,4.7-9C7.8,22.8,4.5,21.7,1.1,21.6z"/>
						</g>
					</g>
				</g>
			</g>
		</g>
	</g>
	<g>
		<g>
			<g>
				<g>
					<g>
						<g>
							<path class="st0" d="M15.9,29.9c-3.5,0.7-6.6,2.3-9,4.7c0,0,0,0,0.1,0.1c0.2,0.2,0.3,0.3,0.5,0.5c0,0,0.1,0.1,0.1,0.1
								c0.2,0.2,0.4,0.3,0.6,0.5c0,0,0.1,0,0.1,0.1c0.2,0.2,0.4,0.3,0.6,0.5c0,0,0,0,0.1,0.1c0.2,0.1,0.4,0.3,0.6,0.4
								c0,0,0.1,0,0.1,0.1c0.2,0.1,0.4,0.3,0.6,0.4c0,0,0.1,0,0.1,0.1c0.2,0.1,0.4,0.2,0.6,0.3c0.1,0,0.1,0.1,0.2,0.1
								c0.2,0.1,0.4,0.2,0.5,0.3c0.1,0.1,0.2,0.1,0.3,0.1c0.1,0.1,0.3,0.1,0.4,0.2c0.1,0.1,0.3,0.1,0.5,0.2c0.1,0,0.2,0.1,0.3,0.1
								c0.2,0.1,0.4,0.1,0.6,0.2c0.1,0,0.1,0,0.2,0.1c0.2,0.1,0.4,0.1,0.7,0.2c0,0,0.1,0,0.1,0c0.2,0.1,0.5,0.1,0.7,0.2
								c0,0,0.1,0,0.1,0c0.3,0.1,0.5,0.1,0.8,0.1c0,0,0.1,0,0.1,0c0.3,0,0.5,0.1,0.8,0.1c0,0,0.1,0,0.1,0c0.2,0,0.5,0.1,0.7,0.1
								c0,0,0.1,0,0.1,0c0.2,0,0.5,0,0.7,0c0,0,0.1,0,0.1,0C18.9,36.1,17.9,32.8,15.9,29.9z"/>
						</g>
					</g>
				</g>
			</g>
		</g>
	</g>
	<g>
		<g>
			<g>
				<g>
					<g>
						<g>
							<path class="st0" d="M37.9,20.5c0-0.3,0-0.5,0-0.8c0,0,0-0.1,0-0.1c0-0.3,0-0.5-0.1-0.8c0,0,0,0,0,0c0-0.3-0.1-0.5-0.1-0.8
								c0,0,0,0,0,0c0-0.3-0.1-0.5-0.2-0.8c0,0,0,0,0,0c-0.1-0.3-0.1-0.5-0.2-0.8c0,0,0-0.1,0-0.1c-0.1-0.2-0.1-0.5-0.2-0.7
								c0-0.1,0-0.1-0.1-0.2c-0.1-0.2-0.1-0.4-0.2-0.6c0-0.1-0.1-0.2-0.1-0.3c-0.1-0.2-0.1-0.3-0.2-0.5c-0.1-0.1-0.1-0.3-0.2-0.4
								c-0.1-0.1-0.1-0.2-0.2-0.3c-0.1-0.2-0.2-0.3-0.3-0.5c0-0.1-0.1-0.2-0.1-0.2c-0.1-0.2-0.2-0.4-0.3-0.6c0,0-0.1-0.1-0.1-0.1
								c-0.1-0.2-0.3-0.4-0.4-0.6c0,0,0-0.1-0.1-0.1c-0.1-0.2-0.3-0.4-0.4-0.6c0,0,0-0.1-0.1-0.1c-0.1-0.2-0.3-0.4-0.5-0.6
								c0,0,0-0.1-0.1-0.1c-0.2-0.2-0.3-0.4-0.5-0.6c0,0-0.1-0.1-0.1-0.1c-0.2-0.2-0.3-0.3-0.5-0.5c0,0,0,0-0.1-0.1
								c-2.3,2.5-4,5.6-4.7,9C31.2,19.4,34.6,20.5,37.9,20.5C38,20.5,38,20.5,37.9,20.5z"/>
						</g>
					</g>
				</g>
			</g>
		</g>
	</g>
	<g>
		<g>
			<g>
				<g>
					<g>
						<g>
							<path class="st0" d="M32.1,7.6c-0.2-0.2-0.3-0.3-0.5-0.5c0,0-0.1-0.1-0.1-0.1c-0.2-0.2-0.4-0.3-0.6-0.5c0,0-0.1,0-0.1-0.1
								c-0.2-0.2-0.4-0.3-0.6-0.4c0,0-0.1,0-0.1-0.1c-0.2-0.1-0.4-0.3-0.6-0.4c0,0-0.1,0-0.1-0.1c-0.2-0.1-0.4-0.3-0.6-0.4
								c0,0-0.1,0-0.1-0.1c-0.2-0.1-0.4-0.2-0.6-0.3c-0.1,0-0.1-0.1-0.2-0.1c-0.2-0.1-0.4-0.2-0.5-0.3c-0.1,0-0.2-0.1-0.3-0.1
								c-0.2-0.1-0.3-0.1-0.5-0.2C26.4,4,26.3,4,26.2,3.9c-0.1,0-0.2-0.1-0.3-0.1c-0.2-0.1-0.4-0.1-0.5-0.2c-0.1,0-0.2-0.1-0.2-0.1
								c-0.2-0.1-0.4-0.1-0.6-0.2c-0.1,0-0.1,0-0.2,0c-0.2-0.1-0.5-0.1-0.7-0.2c0,0-0.1,0-0.1,0C23.2,3,22.9,3,22.7,2.9
								c0,0-0.1,0-0.1,0c-0.2,0-0.5-0.1-0.7-0.1c0,0-0.1,0-0.1,0c-0.2,0-0.5-0.1-0.7-0.1c-0.1,0-0.1,0-0.2,0c-0.2,0-0.5,0-0.7,0
								c0,0-0.1,0-0.1,0c0.1,3.4,1.1,6.7,3.1,9.7C26.6,11.7,29.7,10,32.1,7.6C32.1,7.7,32.1,7.6,32.1,7.6z"/>
						</g>
					</g>
				</g>
			</g>
		</g>
	</g>
	<g>
		<g>
			<g>
				<g>
					<g>
						<g>
							<path class="st0" d="M28.3,24.7c0.7,3.5,2.3,6.6,4.7,9c0,0,0,0,0,0c0.2-0.2,0.3-0.4,0.5-0.5c0,0,0.1-0.1,0.1-0.1
								c0.2-0.2,0.3-0.4,0.5-0.6c0,0,0,0,0.1-0.1c0.2-0.2,0.3-0.4,0.5-0.6c0,0,0,0,0-0.1c0.1-0.2,0.3-0.4,0.4-0.6c0,0,0-0.1,0.1-0.1
								c0.1-0.2,0.3-0.4,0.4-0.6c0,0,0-0.1,0.1-0.1c0.1-0.2,0.2-0.4,0.3-0.6c0-0.1,0.1-0.1,0.1-0.2c0.1-0.2,0.2-0.3,0.3-0.5
								c0.1-0.1,0.1-0.2,0.2-0.3c0.1-0.1,0.1-0.3,0.2-0.4c0.1-0.2,0.1-0.3,0.2-0.5c0-0.1,0.1-0.2,0.1-0.3c0.1-0.2,0.1-0.4,0.2-0.6
								c0-0.1,0-0.1,0.1-0.2c0.1-0.2,0.1-0.5,0.2-0.7c0,0,0-0.1,0-0.1c0.1-0.3,0.1-0.5,0.2-0.8c0,0,0,0,0,0c0.1-0.3,0.1-0.5,0.2-0.8
								c0,0,0,0,0,0c0-0.3,0.1-0.5,0.1-0.8c0,0,0,0,0,0c0-0.3,0.1-0.5,0.1-0.8c0,0,0-0.1,0-0.1c0-0.3,0-0.5,0-0.8c0,0,0,0,0,0
								C34.6,21.7,31.2,22.8,28.3,24.7z"/>
						</g>
					</g>
				</g>
			</g>
		</g>
	</g>
	<g>
		<g>
			<g>
				<g>
					<g>
						<g>
							<path class="st0" d="M23.1,29.9c-2,2.9-3,6.3-3.1,9.7c0,0,0.1,0,0.1,0c0.2,0,0.5,0,0.7,0c0.1,0,0.1,0,0.2,0
								c0.2,0,0.5,0,0.7-0.1c0,0,0.1,0,0.1,0c0.2,0,0.5-0.1,0.7-0.1c0,0,0.1,0,0.1,0c0.2,0,0.5-0.1,0.7-0.1c0,0,0.1,0,0.1,0
								c0.2-0.1,0.5-0.1,0.7-0.2c0.1,0,0.1,0,0.2,0c0.2-0.1,0.4-0.1,0.6-0.2c0.1,0,0.2-0.1,0.2-0.1c0.2-0.1,0.4-0.1,0.5-0.2
								c0.1,0,0.2-0.1,0.3-0.1c0.1-0.1,0.3-0.1,0.4-0.2c0.2-0.1,0.3-0.1,0.5-0.2c0.1,0,0.2-0.1,0.3-0.1c0.2-0.1,0.4-0.2,0.6-0.3
								c0.1,0,0.1-0.1,0.2-0.1c0.2-0.1,0.4-0.2,0.6-0.3c0,0,0.1,0,0.1-0.1c0.2-0.1,0.4-0.3,0.7-0.4c0,0,0,0,0.1,0
								c0.2-0.1,0.4-0.3,0.7-0.4c0,0,0,0,0.1,0c0.2-0.2,0.4-0.3,0.6-0.5c0,0,0,0,0.1-0.1c0.2-0.2,0.4-0.3,0.6-0.5
								c0,0,0.1-0.1,0.1-0.1c0.2-0.2,0.4-0.3,0.5-0.5c0,0,0,0,0.1,0C29.7,32.2,26.6,30.5,23.1,29.9z"/>
						</g>
					</g>
				</g>
			</g>
		</g>
	</g>
	<g>
		<g>
			<g>
				<g>
					<g>
						<g>
							<path class="st0" d="M6.1,8.5C6.1,8.5,6.1,8.5,6.1,8.5C5.9,8.7,5.7,8.9,5.6,9c0,0-0.1,0.1-0.1,0.1C5.3,9.3,5.2,9.5,5,9.7
								c0,0,0,0.1-0.1,0.1c-0.2,0.2-0.3,0.4-0.5,0.6c0,0,0,0,0,0.1c-0.1,0.2-0.3,0.4-0.4,0.6c0,0,0,0.1-0.1,0.1
								c-0.1,0.2-0.3,0.4-0.4,0.6c0,0,0,0.1-0.1,0.1c-0.1,0.2-0.2,0.4-0.3,0.6c0,0.1-0.1,0.1-0.1,0.2c-0.1,0.2-0.2,0.4-0.3,0.5
								c0,0.1-0.1,0.2-0.1,0.3c-0.1,0.1-0.1,0.3-0.2,0.4c-0.1,0.1-0.1,0.3-0.2,0.4c0,0.1-0.1,0.2-0.1,0.3C2.1,15,2.1,15.2,2,15.4
								c0,0.1,0,0.1-0.1,0.2c-0.1,0.2-0.1,0.4-0.2,0.7c0,0,0,0.1,0,0.1c-0.1,0.2-0.1,0.5-0.2,0.7c0,0,0,0.1,0,0.1
								c-0.1,0.2-0.1,0.5-0.1,0.7c0,0,0,0.1,0,0.1c0,0.2-0.1,0.5-0.1,0.7c0,0,0,0.1,0,0.1c0,0.2-0.1,0.5-0.1,0.7c0,0.1,0,0.1,0,0.2
								c0,0.2,0,0.5,0,0.7c0,0,0,0.1,0,0.1c3.4-0.1,6.7-1.1,9.7-3.1C10.1,14,8.4,10.9,6.1,8.5z"/>
						</g>
					</g>
				</g>
			</g>
		</g>
	</g>
	<g>
		<g>
			<g>
				<g>
					<g>
						<g>
							<path class="st0" d="M18.9,2.7c-0.2,0-0.5,0-0.7,0c-0.1,0-0.1,0-0.2,0c-0.2,0-0.5,0-0.7,0.1c0,0-0.1,0-0.1,0
								c-0.2,0-0.5,0.1-0.7,0.1c0,0-0.1,0-0.1,0c-0.3,0-0.5,0.1-0.7,0.1c0,0-0.1,0-0.1,0c-0.2,0.1-0.5,0.1-0.7,0.2c0,0-0.1,0-0.1,0
								c-0.2,0.1-0.4,0.1-0.7,0.2c-0.1,0-0.1,0-0.2,0.1c-0.2,0.1-0.4,0.1-0.6,0.2c-0.1,0-0.2,0.1-0.3,0.1c-0.2,0.1-0.3,0.1-0.5,0.2
								c-0.1,0.1-0.3,0.1-0.4,0.2c-0.1,0-0.2,0.1-0.3,0.2c-0.2,0.1-0.3,0.2-0.5,0.3c-0.1,0-0.2,0.1-0.2,0.1
								c-0.2,0.1-0.4,0.2-0.6,0.3c0,0-0.1,0.1-0.1,0.1C10,5.3,9.8,5.4,9.6,5.5c0,0-0.1,0-0.1,0.1C9.3,5.7,9.1,5.9,8.9,6
								c0,0-0.1,0-0.1,0.1C8.6,6.2,8.4,6.4,8.2,6.5c0,0-0.1,0.1-0.1,0.1C7.9,6.8,7.8,6.9,7.6,7.1c0,0-0.1,0.1-0.1,0.1
								C7.3,7.3,7.1,7.5,6.9,7.6c0,0,0,0-0.1,0.1c2.5,2.3,5.6,4,9,4.7C17.9,9.4,18.9,6.1,18.9,2.7C19,2.7,18.9,2.7,18.9,2.7z"/>
						</g>
					</g>
				</g>
			</g>
		</g>
	</g>
	<path class="st1" d="M141.6,18.5c-4.1,0-7.6,2.6-7.6,7.1c0,4.1,2.9,6.2,6.1,6.2c0.9,0,1.7-0.2,2.5-0.4v2.8c0,1.4-0.3,2.1-1.5,2.1
		c-0.5,0-1.2,0-2.1,0l0,2.8c1.4,0,1.8,0,2.7,0c2,0,4-1.2,4.1-4.5l0,0V19.5C144.7,18.9,143.3,18.5,141.6,18.5z M140.8,29.1
		c-2.2,0-3.5-1.8-3.5-3.7c0-2.4,1.6-4.2,3.7-4.2c0.6,0,1.1,0.1,1.6,0.2v7.3C142.1,28.9,141.6,29.1,140.8,29.1z"/>
	<path class="st2" d="M69.1,31.5L69,30.2c-0.9,0.8-2.2,1.5-3.9,1.5c-1.7,0-4.3-0.9-4.3-5v-8.1H64v7.9c0,1.6,0.7,2.6,2.3,2.6
		c1.1,0,1.9-0.6,2.5-1v-9.4H72V28c0,2,0,2.9,0.2,3.5H69.1z"/>
	<path class="st2" d="M82.4,21.7c-0.5-0.3-1.1-0.4-1.5-0.4c-0.8,0-1.6,0.3-2.4,1.1v9h-3.2V18.8h2.7l0.3,1.3c1.3-1.2,2.3-1.6,3.5-1.6
		c0.6,0,1.3,0.2,1.8,0.5L82.4,21.7z"/>
	<path class="st2" d="M93.3,31.5V24c0-1.3-0.2-2.8-1.9-2.8c-1.1,0-2.2,0.6-3.2,1.3v8.9h-3.2V18.8h2.7l0.3,1.4c1.4-1,2.7-1.7,4.5-1.7
		c1.9,0,4,1.2,4,4.6v8.5H93.3z"/>
	<path class="st2" d="M101.5,16.8c-1.1,0-2-0.9-2-2c0-1.1,0.9-1.9,2-1.9c1.1,0,2,0.9,2,1.9C103.5,15.9,102.6,16.8,101.5,16.8z
		 M99.8,31.5V18.8h3.2v12.7H99.8z"/>
	<path class="st2" d="M114.8,31.5V24c0-1.3-0.2-2.8-1.9-2.8c-1.1,0-2.2,0.6-3.2,1.3v8.9h-3.2V18.8h2.7l0.4,1.4
		c1.4-1,2.7-1.7,4.5-1.7c1.9,0,4,1.2,4,4.6v8.5H114.8z"/>
	<g>
		<path class="st1" d="M170.9,31.9c-2.1,0-3.6-0.5-4.7-1.2l1-2.4c0.9,0.6,2.2,1.1,3.4,1.1c1.3,0,2.2-0.5,2.2-1.3
			c0-2.3-5.9-1.4-5.9-5.8c0-2.2,1.8-3.8,4.8-3.8c1.6,0,2.7,0.2,3.7,0.6v2.7c-1.1-0.4-2.3-0.8-3.6-0.8c-1.1,0-1.8,0.4-1.8,1.1
			c0,2,6,1.3,6,5.7C176.1,30.8,173.6,31.9,170.9,31.9z"/>
		<path class="st1" d="M182.1,31.9c-2.1,0-3.6-0.5-4.7-1.2l1.1-2.4c0.9,0.6,2.2,1.1,3.4,1.1c1.3,0,2.2-0.5,2.2-1.3
			c0-2.3-5.9-1.4-5.9-5.8c0-2.2,1.8-3.8,4.8-3.8c1.6,0,2.7,0.2,3.7,0.6v2.7c-1.1-0.4-2.3-0.8-3.6-0.8c-1.1,0-1.8,0.4-1.8,1.1
			c0,2,6,1.3,6,5.7C187.3,30.8,184.8,31.9,182.1,31.9z"/>
		<g>
			<path class="st1" d="M160.7,18.7c1.7,0,3.2,0.3,4.2,0.9v12.3H162l-0.3-0.6c-0.6,0.4-1.5,0.7-2.5,0.7c-3.2,0-6.1-2-6.1-6.2
				C153.1,21.3,156.5,18.7,160.7,18.7z M159.8,29.2c0.8,0,1.3-0.2,1.8-0.4v-7.3c-0.5-0.2-0.9-0.2-1.6-0.2c-2.2,0-3.7,1.8-3.7,4.2
				C156.3,27.5,157.6,29.2,159.8,29.2z"/>
		</g>
		<path class="st1" d="M148.2,31.7V12.6h3.2v19.1H148.2z"/>
	</g>
	<path class="st2" d="M127.2,18.5c-4.1,0-7.6,2.6-7.6,7.1c0,4.1,2.9,6.2,6.1,6.2c0.9,0,1.7-0.2,2.5-0.4v2.8c0,1.4-0.3,2.1-1.5,2.1
		c-0.5,0-1.2,0-2.1,0l0,2.8c1.4,0,1.8,0,2.7,0c2,0,4-1.2,4.1-4.5l0,0V19.5C130.4,18.9,128.9,18.5,127.2,18.5z M126.4,29.1
		c-2.2,0-3.5-1.8-3.5-3.7c0-2.4,1.6-4.2,3.7-4.2c0.6,0,1.1,0.1,1.6,0.2v7.3C127.7,28.9,127.2,29.1,126.4,29.1z"/>
	<g>
		<path class="st1" d="M49.1,41.7c-1.7,0-2.7-1.2-2.7-2.7c0-1.5,1.1-2.8,2.9-2.8c0.6,0,1.1,0.1,1.4,0.3l0,0.9
			c-0.4-0.3-0.9-0.4-1.3-0.4c-1.2,0-1.8,0.9-1.8,1.9c0,1.1,0.7,1.9,1.8,1.9c0.5,0,0.9-0.1,1.3-0.4l0.3,0.7
			C50.3,41.6,49.7,41.7,49.1,41.7z"/>
		<path class="st1" d="M55.7,41.6l-0.5-1.3h-1.9l-0.5,1.3h-1l2.1-5.3h0.7l2.1,5.3H55.7z M54.4,38.3c-0.1-0.3-0.2-0.5-0.2-0.7h0
			c0,0.2-0.1,0.4-0.2,0.6l-0.5,1.2h1.3L54.4,38.3z"/>
		<path class="st1" d="M60.6,41.6c-0.8-1.4-1.2-2-1.4-2.1h-0.5v2.1h-1v-5.3h1.4c1.4,0,1.9,0.7,1.9,1.5c0,0.7-0.5,1.2-1,1.4v0
			c0.2,0.1,0.8,1.1,1.6,2.4H60.6z M59.3,37.1h-0.5v1.7h0.5c0.5,0,0.9-0.4,0.9-0.9C60.1,37.5,59.9,37.1,59.3,37.1z"/>
		<path class="st1" d="M62.8,41.6v-5.3h3l-0.3,0.8h-1.7v1.4h1.7v0.8h-1.7v1.5h2v0.8H62.8z"/>
		<path class="st1" d="M67.1,41.6v-5.3h3l-0.3,0.8h-1.7v1.4h1.7v0.8h-1.7v1.5h2v0.8H67.1z"/>
		<path class="st1" d="M74.3,41.6c-0.8-1.4-1.2-2-1.4-2.1h-0.5v2.1h-1v-5.3h1.4c1.4,0,1.9,0.7,1.9,1.5c0,0.7-0.5,1.2-1,1.4v0
			c0.2,0.1,0.8,1.1,1.6,2.4H74.3z M72.9,37.1h-0.5v1.7h0.5c0.5,0,0.9-0.4,0.9-0.9C73.8,37.5,73.5,37.1,72.9,37.1z"/>
		<path class="st1" d="M77.9,41.7c-0.8,0-1.3-0.2-1.6-0.5l0.4-0.7c0.3,0.2,0.7,0.4,1.2,0.4c0.4,0,0.9-0.2,0.9-0.6
			c0-0.8-1.3-0.9-1.9-1.6c-0.2-0.2-0.3-0.5-0.3-1c0-0.8,0.6-1.5,1.7-1.5c0.6,0,1,0.1,1.3,0.3l0,0.9c-0.4-0.2-0.8-0.4-1.2-0.4
			c-0.4,0-0.8,0.2-0.8,0.5c0,1,2.3,0.9,2.3,2.6C79.7,41.1,78.9,41.7,77.9,41.7z"/>
		<path class="st1" d="M83.4,41.6v-5.3h1v5.3H83.4z"/>
		<path class="st1" d="M89.9,41.6l-2.4-3.1c-0.2-0.3-0.4-0.5-0.5-0.7h0c0,0.2,0,0.5,0,0.7v3.1h-1v-5.3h1l2.3,3
			c0.3,0.3,0.4,0.5,0.5,0.7h0c0-0.2,0-0.5,0-0.8v-3h1v5.3H89.9z"/>
		<path class="st1" d="M97.5,37.1h-1.7v1.4h1.7l0,0.8h-1.7v2.3h-1v-5.3h3L97.5,37.1z"/>
		<path class="st1" d="M103.4,41c-0.5,0.5-1.2,0.8-2,0.8c-0.8,0-1.4-0.2-1.9-0.7c-0.5-0.5-0.8-1.2-0.8-2c0-0.8,0.3-1.5,0.8-2
			c0.5-0.5,1.1-0.8,2-0.8c0.9,0,1.6,0.3,2,0.8c0.4,0.5,0.7,1.1,0.7,1.9C104.2,39.8,103.9,40.5,103.4,41z M101.5,37.1
			c-1,0-1.7,0.7-1.7,1.9c0,1.2,0.7,1.9,1.7,1.9c1,0,1.7-0.7,1.7-1.9C103.1,37.8,102.5,37.1,101.5,37.1z"/>
		<path class="st1" d="M107.9,41.7c-1.7,0-2.7-1.2-2.7-2.7c0-1.5,1.1-2.8,2.9-2.8c0.6,0,1.1,0.1,1.4,0.3l0,0.9
			c-0.4-0.3-0.9-0.4-1.3-0.4c-1.2,0-1.8,0.9-1.8,1.9c0,1.1,0.7,1.9,1.8,1.9c0.5,0,0.9-0.1,1.3-0.4l0.3,0.7
			C109.1,41.6,108.5,41.7,107.9,41.7z"/>
		<path class="st1" d="M114.8,41.1c-0.4,0.4-0.9,0.6-1.7,0.6c-0.8,0-1.3-0.2-1.7-0.5c-0.4-0.4-0.5-0.9-0.5-1.5v-3.4h1v3.3
			c0,0.4,0.1,0.7,0.3,0.9c0.2,0.2,0.5,0.3,0.9,0.3c0.5,0,0.8-0.1,1-0.3c0.2-0.2,0.3-0.5,0.3-0.9v-3.4h1v3.3
			C115.3,40.2,115.1,40.8,114.8,41.1z"/>
		<path class="st1" d="M118.3,41.7c-0.8,0-1.3-0.2-1.6-0.5l0.4-0.7c0.3,0.2,0.7,0.4,1.2,0.4c0.4,0,0.9-0.2,0.9-0.6
			c0-0.8-1.3-0.9-1.9-1.6c-0.2-0.2-0.3-0.5-0.3-1c0-0.8,0.6-1.5,1.7-1.5c0.6,0,1,0.1,1.3,0.3l0,0.9c-0.4-0.2-0.8-0.4-1.2-0.4
			c-0.4,0-0.8,0.2-0.8,0.5c0,1,2.3,0.9,2.3,2.6C120.1,41.1,119.3,41.7,118.3,41.7z"/>
	</g>
	<path class="st2" d="M50.7,31.8c4.1,0,7.6-2.6,7.6-7.1c0-4.1-2.9-6.2-6.1-6.2c-0.9,0-1.7,0.2-2.5,0.4v-2.8c0-1.4,0.3-2.1,1.5-2.1
		c0.5,0,1.2,0,2.1,0l0-2.8c-1.4,0-1.8,0-2.7,0c-2,0-4,1.2-4.1,4.5l0,0v15.1C47.5,31.4,49,31.8,50.7,31.8z M51.5,21.2
		c2.2,0,3.5,1.8,3.5,3.7c0,2.4-1.6,4.2-3.7,4.2c-0.6,0-1.1-0.1-1.6-0.2v-7.3C50.2,21.4,50.7,21.2,51.5,21.2z"/>
	<g>
		<g>
			<g>
				<g>
					<g>
						<g>
							<path class="st0" d="M10.8,17.5c-2.9,2-6.3,3-9.7,3.1c0,0.2,0,0.4,0,0.5s0,0.4,0,0.5c3.4,0.1,6.7,1.1,9.7,3.1
								c0.2-1.2,0.4-2.4,0.4-3.6C11.1,19.9,11,18.6,10.8,17.5z"/>
						</g>
					</g>
				</g>
			</g>
		</g>
	</g>
	<g>
		<g>
			<g>
				<g>
					<g>
						<g>
							<path class="st0" d="M38,20.6c-3.4-0.1-6.7-1.1-9.7-3.1c-0.2,1.2-0.4,2.4-0.4,3.6c0,1.2,0.1,2.5,0.4,3.6c2.9-2,6.3-3,9.7-3.1
								c0-0.2,0-0.4,0-0.5S38,20.7,38,20.6z"/>
						</g>
					</g>
				</g>
			</g>
		</g>
	</g>
	<g>
		<g>
			<g>
				<g>
					<g>
						<g>
							<path class="st0" d="M19.5,29.5c-1.2,0-2.5,0.1-3.6,0.4c2,2.9,3,6.3,3.1,9.7c0.2,0,0.4,0,0.5,0s0.4,0,0.5,0
								c0.1-3.4,1.1-6.7,3.1-9.7C22,29.6,20.8,29.5,19.5,29.5z"/>
						</g>
					</g>
				</g>
			</g>
		</g>
	</g>
	<g>
		<g>
			<g>
				<g>
					<g>
						<g>
							<path class="st0" d="M20.1,2.7c-0.2,0-0.4,0-0.5,0c-0.2,0-0.4,0-0.5,0c-0.1,3.4-1.1,6.7-3.1,9.7c1.2,0.2,2.4,0.4,3.6,0.4
								c1.2,0,2.5-0.1,3.6-0.4C21.2,9.4,20.2,6.1,20.1,2.7z"/>
						</g>
					</g>
				</g>
			</g>
		</g>
	</g>
	<g>
		<g>
			<g>
				<g>
					<g>
						<g>
							<path class="st3" d="M13.6,27c-0.9-0.9-1.8-1.6-2.8-2.3c-0.7,3.5-2.3,6.6-4.7,9c0.1,0.1,0.2,0.3,0.4,0.4
								c0.1,0.1,0.3,0.3,0.4,0.4c2.5-2.3,5.6-4,9-4.7C15.2,28.9,14.5,27.9,13.6,27z"/>
						</g>
					</g>
				</g>
			</g>
		</g>
	</g>
	<g class="st4">
		<g>
			<g>
				<g>
					<g>
						<g>
							<path class="st5" d="M1.1,21.6C1.1,21.7,1.1,21.7,1.1,21.6c0,0.3,0,0.5,0,0.8c0,0.1,0,0.1,0,0.2c0,0.2,0,0.5,0.1,0.7
								c0,0,0,0.1,0,0.1c0,0.2,0.1,0.5,0.1,0.7c0,0,0,0.1,0,0.1c0,0.2,0.1,0.5,0.1,0.7c0,0,0,0.1,0,0.1c0.1,0.2,0.1,0.5,0.2,0.7
								c0,0,0,0.1,0,0.1c0.1,0.2,0.1,0.4,0.2,0.7c0,0.1,0,0.2,0.1,0.2c0.1,0.2,0.1,0.4,0.2,0.6c0,0.1,0.1,0.2,0.1,0.3
								c0.1,0.1,0.1,0.3,0.2,0.4c0.1,0.2,0.1,0.3,0.2,0.4c0,0.1,0.1,0.2,0.1,0.3c0.1,0.2,0.2,0.4,0.3,0.5c0,0.1,0.1,0.1,0.1,0.2
								c0.1,0.2,0.2,0.4,0.3,0.6c0,0,0,0.1,0.1,0.1C3.7,30.6,3.8,30.8,4,31c0,0,0,0,0,0.1c0.1,0.2,0.3,0.4,0.4,0.6c0,0,0,0,0,0.1
								C4.7,32,4.8,32.2,5,32.4c0,0,0,0,0.1,0.1c0.2,0.2,0.3,0.4,0.5,0.6c0,0,0.1,0.1,0.1,0.1c0.2,0.2,0.3,0.4,0.5,0.5c0,0,0,0,0,0
								c2.3-2.5,4-5.6,4.7-9C7.8,22.8,4.5,21.7,1.1,21.6z"/>
						</g>
					</g>
				</g>
			</g>
		</g>
	</g>
	<g class="st4">
		<g>
			<g>
				<g>
					<g>
						<g>
							<path class="st5" d="M15.9,29.9c-3.5,0.7-6.6,2.3-9,4.7c0,0,0,0,0.1,0.1c0.2,0.2,0.3,0.3,0.5,0.5c0,0,0.1,0.1,0.1,0.1
								c0.2,0.2,0.4,0.3,0.6,0.5c0,0,0.1,0,0.1,0.1c0.2,0.2,0.4,0.3,0.6,0.5c0,0,0,0,0.1,0.1c0.2,0.1,0.4,0.3,0.6,0.4
								c0,0,0.1,0,0.1,0.1c0.2,0.1,0.4,0.3,0.6,0.4c0,0,0.1,0,0.1,0.1c0.2,0.1,0.4,0.2,0.6,0.3c0.1,0,0.1,0.1,0.2,0.1
								c0.2,0.1,0.4,0.2,0.5,0.3c0.1,0.1,0.2,0.1,0.3,0.1c0.1,0.1,0.3,0.1,0.4,0.2c0.1,0.1,0.3,0.1,0.5,0.2c0.1,0,0.2,0.1,0.3,0.1
								c0.2,0.1,0.4,0.1,0.6,0.2c0.1,0,0.1,0,0.2,0.1c0.2,0.1,0.4,0.1,0.7,0.2c0,0,0.1,0,0.1,0c0.2,0.1,0.5,0.1,0.7,0.2
								c0,0,0.1,0,0.1,0c0.3,0.1,0.5,0.1,0.8,0.1c0,0,0.1,0,0.1,0c0.3,0,0.5,0.1,0.8,0.1c0,0,0.1,0,0.1,0c0.2,0,0.5,0.1,0.7,0.1
								c0,0,0.1,0,0.1,0c0.2,0,0.5,0,0.7,0c0,0,0.1,0,0.1,0C18.9,36.1,17.9,32.8,15.9,29.9z"/>
						</g>
					</g>
				</g>
			</g>
		</g>
	</g>
	<g>
		<g>
			<g>
				<g>
					<g>
						<g>
							<path class="st3" d="M32.6,8.1c-0.1-0.1-0.3-0.3-0.4-0.4c-2.5,2.3-5.6,4-9,4.7c0.7,1,1.4,1.9,2.3,2.8
								c0.9,0.9,1.8,1.6,2.8,2.3c0.7-3.5,2.3-6.6,4.7-9C32.8,8.3,32.7,8.2,32.6,8.1z"/>
						</g>
					</g>
				</g>
			</g>
		</g>
	</g>
	<g class="st4">
		<g>
			<g>
				<g>
					<g>
						<g>
							<path class="st5" d="M37.9,20.5c0-0.3,0-0.5,0-0.8c0,0,0-0.1,0-0.1c0-0.3,0-0.5-0.1-0.8c0,0,0,0,0,0c0-0.3-0.1-0.5-0.1-0.8
								c0,0,0,0,0,0c0-0.3-0.1-0.5-0.2-0.8c0,0,0,0,0,0c-0.1-0.3-0.1-0.5-0.2-0.8c0,0,0-0.1,0-0.1c-0.1-0.2-0.1-0.5-0.2-0.7
								c0-0.1,0-0.1-0.1-0.2c-0.1-0.2-0.1-0.4-0.2-0.6c0-0.1-0.1-0.2-0.1-0.3c-0.1-0.2-0.1-0.3-0.2-0.5c-0.1-0.1-0.1-0.3-0.2-0.4
								c-0.1-0.1-0.1-0.2-0.2-0.3c-0.1-0.2-0.2-0.3-0.3-0.5c0-0.1-0.1-0.2-0.1-0.2c-0.1-0.2-0.2-0.4-0.3-0.6c0,0-0.1-0.1-0.1-0.1
								c-0.1-0.2-0.3-0.4-0.4-0.6c0,0,0-0.1-0.1-0.1c-0.1-0.2-0.3-0.4-0.4-0.6c0,0,0-0.1-0.1-0.1c-0.1-0.2-0.3-0.4-0.5-0.6
								c0,0,0-0.1-0.1-0.1c-0.2-0.2-0.3-0.4-0.5-0.6c0,0-0.1-0.1-0.1-0.1c-0.2-0.2-0.3-0.3-0.5-0.5c0,0,0,0-0.1-0.1
								c-2.3,2.5-4,5.6-4.7,9C31.2,19.4,34.6,20.5,37.9,20.5C38,20.5,38,20.5,37.9,20.5z"/>
						</g>
					</g>
				</g>
			</g>
		</g>
	</g>
	<g class="st4">
		<g>
			<g>
				<g>
					<g>
						<g>
							<path class="st5" d="M32.1,7.6c-0.2-0.2-0.3-0.3-0.5-0.5c0,0-0.1-0.1-0.1-0.1c-0.2-0.2-0.4-0.3-0.6-0.5c0,0-0.1,0-0.1-0.1
								c-0.2-0.2-0.4-0.3-0.6-0.4c0,0-0.1,0-0.1-0.1c-0.2-0.1-0.4-0.3-0.6-0.4c0,0-0.1,0-0.1-0.1c-0.2-0.1-0.4-0.3-0.6-0.4
								c0,0-0.1,0-0.1-0.1c-0.2-0.1-0.4-0.2-0.6-0.3c-0.1,0-0.1-0.1-0.2-0.1c-0.2-0.1-0.4-0.2-0.5-0.3c-0.1,0-0.2-0.1-0.3-0.1
								c-0.2-0.1-0.3-0.1-0.5-0.2C26.4,4,26.3,4,26.2,3.9c-0.1,0-0.2-0.1-0.3-0.1c-0.2-0.1-0.4-0.1-0.5-0.2c-0.1,0-0.2-0.1-0.2-0.1
								c-0.2-0.1-0.4-0.1-0.6-0.2c-0.1,0-0.1,0-0.2,0c-0.2-0.1-0.5-0.1-0.7-0.2c0,0-0.1,0-0.1,0C23.2,3,22.9,3,22.7,2.9
								c0,0-0.1,0-0.1,0c-0.2,0-0.5-0.1-0.7-0.1c0,0-0.1,0-0.1,0c-0.2,0-0.5-0.1-0.7-0.1c-0.1,0-0.1,0-0.2,0c-0.2,0-0.5,0-0.7,0
								c0,0-0.1,0-0.1,0c0.1,3.4,1.1,6.7,3.1,9.7C26.6,11.7,29.7,10,32.1,7.6C32.1,7.7,32.1,7.6,32.1,7.6z"/>
						</g>
					</g>
				</g>
			</g>
		</g>
	</g>
	<g>
		<g>
			<g>
				<g>
					<g>
						<g>
							<path class="st3" d="M28.3,24.7c-1,0.7-1.9,1.4-2.8,2.3c-0.9,0.9-1.6,1.8-2.3,2.8c3.5,0.7,6.6,2.3,9,4.7
								c0.1-0.1,0.3-0.2,0.4-0.4c0.1-0.1,0.3-0.3,0.4-0.4C30.6,31.3,29,28.2,28.3,24.7z"/>
						</g>
					</g>
				</g>
			</g>
		</g>
	</g>
	<g class="st4">
		<g>
			<g>
				<g>
					<g>
						<g>
							<path class="st5" d="M28.3,24.7c0.7,3.5,2.3,6.6,4.7,9c0,0,0,0,0,0c0.2-0.2,0.3-0.4,0.5-0.5c0,0,0.1-0.1,0.1-0.1
								c0.2-0.2,0.3-0.4,0.5-0.6c0,0,0,0,0.1-0.1c0.2-0.2,0.3-0.4,0.5-0.6c0,0,0,0,0-0.1c0.1-0.2,0.3-0.4,0.4-0.6c0,0,0-0.1,0.1-0.1
								c0.1-0.2,0.3-0.4,0.4-0.6c0,0,0-0.1,0.1-0.1c0.1-0.2,0.2-0.4,0.3-0.6c0-0.1,0.1-0.1,0.1-0.2c0.1-0.2,0.2-0.3,0.3-0.5
								c0.1-0.1,0.1-0.2,0.2-0.3c0.1-0.1,0.1-0.3,0.2-0.4c0.1-0.2,0.1-0.3,0.2-0.5c0-0.1,0.1-0.2,0.1-0.3c0.1-0.2,0.1-0.4,0.2-0.6
								c0-0.1,0-0.1,0.1-0.2c0.1-0.2,0.1-0.5,0.2-0.7c0,0,0-0.1,0-0.1c0.1-0.3,0.1-0.5,0.2-0.8c0,0,0,0,0,0c0.1-0.3,0.1-0.5,0.2-0.8
								c0,0,0,0,0,0c0-0.3,0.1-0.5,0.1-0.8c0,0,0,0,0,0c0-0.3,0.1-0.5,0.1-0.8c0,0,0-0.1,0-0.1c0-0.3,0-0.5,0-0.8c0,0,0,0,0,0
								C34.6,21.7,31.2,22.8,28.3,24.7z"/>
						</g>
					</g>
				</g>
			</g>
		</g>
	</g>
	<g class="st4">
		<g>
			<g>
				<g>
					<g>
						<g>
							<path class="st5" d="M23.1,29.9c-2,2.9-3,6.3-3.1,9.7c0,0,0.1,0,0.1,0c0.2,0,0.5,0,0.7,0c0.1,0,0.1,0,0.2,0
								c0.2,0,0.5,0,0.7-0.1c0,0,0.1,0,0.1,0c0.2,0,0.5-0.1,0.7-0.1c0,0,0.1,0,0.1,0c0.2,0,0.5-0.1,0.7-0.1c0,0,0.1,0,0.1,0
								c0.2-0.1,0.5-0.1,0.7-0.2c0.1,0,0.1,0,0.2,0c0.2-0.1,0.4-0.1,0.6-0.2c0.1,0,0.2-0.1,0.2-0.1c0.2-0.1,0.4-0.1,0.5-0.2
								c0.1,0,0.2-0.1,0.3-0.1c0.1-0.1,0.3-0.1,0.4-0.2c0.2-0.1,0.3-0.1,0.5-0.2c0.1,0,0.2-0.1,0.3-0.1c0.2-0.1,0.4-0.2,0.6-0.3
								c0.1,0,0.1-0.1,0.2-0.1c0.2-0.1,0.4-0.2,0.6-0.3c0,0,0.1,0,0.1-0.1c0.2-0.1,0.4-0.3,0.7-0.4c0,0,0,0,0.1,0
								c0.2-0.1,0.4-0.3,0.7-0.4c0,0,0,0,0.1,0c0.2-0.2,0.4-0.3,0.6-0.5c0,0,0,0,0.1-0.1c0.2-0.2,0.4-0.3,0.6-0.5
								c0,0,0.1-0.1,0.1-0.1c0.2-0.2,0.4-0.3,0.5-0.5c0,0,0,0,0.1,0C29.7,32.2,26.6,30.5,23.1,29.9z"/>
						</g>
					</g>
				</g>
			</g>
		</g>
	</g>
	<g>
		<g>
			<g>
				<g>
					<g>
						<g>
							<path class="st3" d="M6.9,7.7C6.8,7.8,6.6,7.9,6.5,8.1C6.4,8.2,6.2,8.3,6.1,8.5c2.3,2.5,4,5.6,4.7,9c1-0.7,1.9-1.4,2.8-2.3
								c0.9-0.9,1.6-1.8,2.3-2.8C12.5,11.7,9.3,10,6.9,7.7z"/>
						</g>
					</g>
				</g>
			</g>
		</g>
	</g>
	<g class="st4">
		<g>
			<g>
				<g>
					<g>
						<g>
							<path class="st5" d="M6.1,8.5C6.1,8.5,6.1,8.5,6.1,8.5C5.9,8.7,5.7,8.9,5.6,9c0,0-0.1,0.1-0.1,0.1C5.3,9.3,5.2,9.5,5,9.7
								c0,0,0,0.1-0.1,0.1c-0.2,0.2-0.3,0.4-0.5,0.6c0,0,0,0,0,0.1c-0.1,0.2-0.3,0.4-0.4,0.6c0,0,0,0.1-0.1,0.1
								c-0.1,0.2-0.3,0.4-0.4,0.6c0,0,0,0.1-0.1,0.1c-0.1,0.2-0.2,0.4-0.3,0.6c0,0.1-0.1,0.1-0.1,0.2c-0.1,0.2-0.2,0.4-0.3,0.5
								c0,0.1-0.1,0.2-0.1,0.3c-0.1,0.1-0.1,0.3-0.2,0.4c-0.1,0.1-0.1,0.3-0.2,0.4c0,0.1-0.1,0.2-0.1,0.3C2.1,15,2.1,15.2,2,15.4
								c0,0.1,0,0.1-0.1,0.2c-0.1,0.2-0.1,0.4-0.2,0.7c0,0,0,0.1,0,0.1c-0.1,0.2-0.1,0.5-0.2,0.7c0,0,0,0.1,0,0.1
								c-0.1,0.2-0.1,0.5-0.1,0.7c0,0,0,0.1,0,0.1c0,0.2-0.1,0.5-0.1,0.7c0,0,0,0.1,0,0.1c0,0.2-0.1,0.5-0.1,0.7c0,0.1,0,0.1,0,0.2
								c0,0.2,0,0.5,0,0.7c0,0,0,0.1,0,0.1c3.4-0.1,6.7-1.1,9.7-3.1C10.1,14,8.4,10.9,6.1,8.5z"/>
						</g>
					</g>
				</g>
			</g>
		</g>
	</g>
	<g class="st4">
		<g>
			<g>
				<g>
					<g>
						<g>
							<path class="st5" d="M18.9,2.7c-0.2,0-0.5,0-0.7,0c-0.1,0-0.1,0-0.2,0c-0.2,0-0.5,0-0.7,0.1c0,0-0.1,0-0.1,0
								c-0.2,0-0.5,0.1-0.7,0.1c0,0-0.1,0-0.1,0c-0.3,0-0.5,0.1-0.7,0.1c0,0-0.1,0-0.1,0c-0.2,0.1-0.5,0.1-0.7,0.2c0,0-0.1,0-0.1,0
								c-0.2,0.1-0.4,0.1-0.7,0.2c-0.1,0-0.1,0-0.2,0.1c-0.2,0.1-0.4,0.1-0.6,0.2c-0.1,0-0.2,0.1-0.3,0.1c-0.2,0.1-0.3,0.1-0.5,0.2
								c-0.1,0.1-0.3,0.1-0.4,0.2c-0.1,0-0.2,0.1-0.3,0.2c-0.2,0.1-0.3,0.2-0.5,0.3c-0.1,0-0.2,0.1-0.2,0.1
								c-0.2,0.1-0.4,0.2-0.6,0.3c0,0-0.1,0.1-0.1,0.1C10,5.3,9.8,5.4,9.6,5.5c0,0-0.1,0-0.1,0.1C9.3,5.7,9.1,5.9,8.9,6
								c0,0-0.1,0-0.1,0.1C8.6,6.2,8.4,6.4,8.2,6.5c0,0-0.1,0.1-0.1,0.1C7.9,6.8,7.8,6.9,7.6,7.1c0,0-0.1,0.1-0.1,0.1
								C7.3,7.3,7.1,7.5,6.9,7.6c0,0,0,0-0.1,0.1c2.5,2.3,5.6,4,9,4.7C17.9,9.4,18.9,6.1,18.9,2.7C19,2.7,18.9,2.7,18.9,2.7z"/>
						</g>
					</g>
				</g>
			</g>
		</g>
	</g>
	<g class="st6">
		
			<image style="overflow:visible;" width="424" height="307" xlink:href="AD0D49F0C1B1D693.png"  transform="matrix(0.24 0 0 0.24 -31.3404 7.573)">
		</image>
	</g>
</g>
<g>
	<path class="st1" d="M194,18.5c0,1.3-1,2.3-2.3,2.3c-1.3,0-2.4-1-2.4-2.3c0-1.3,1-2.3,2.4-2.3C193,16.2,194,17.2,194,18.5z
		 M189.9,18.5c0,1,0.8,1.8,1.8,1.8c1,0,1.7-0.8,1.7-1.8c0-1-0.8-1.8-1.8-1.8C190.6,16.7,189.9,17.5,189.9,18.5z M191.3,19.7h-0.5
		v-2.3c0.2,0,0.5-0.1,0.9-0.1c0.4,0,0.6,0.1,0.8,0.2c0.1,0.1,0.2,0.3,0.2,0.5c0,0.3-0.2,0.5-0.5,0.5v0c0.2,0.1,0.3,0.3,0.4,0.6
		c0.1,0.3,0.1,0.5,0.2,0.6h-0.6c-0.1-0.1-0.1-0.3-0.2-0.6c0-0.2-0.2-0.3-0.5-0.3h-0.3V19.7z M191.3,18.4h0.3c0.3,0,0.5-0.1,0.5-0.3
		c0-0.2-0.2-0.3-0.5-0.3c-0.1,0-0.2,0-0.3,0V18.4z"/>
</g>
</svg>
