<?xml version="1.0" encoding="utf-8"?>
<!-- Generator: Adobe Illustrator 19.0.0, SVG Export Plug-In . SVG Version: 6.00 Build 0)  -->
<svg version="1.1" id="Layer_1" xmlns="http://www.w3.org/2000/svg" xmlns:xlink="http://www.w3.org/1999/xlink" x="0px" y="0px"
	 viewBox="-165.8 393.5 140.4 37.6" style="enable-background:new -165.8 393.5 140.4 37.6;" xml:space="preserve">
<style type="text/css">
	.st0{fill:#FFFFFF;}
</style>
<polygon class="st0" points="-140,419.3 -150.3,429.7 -160.8,419.3 "/>
<path class="st0" d="M-150.3,423.9c-8,0-14.4-6.6-14.4-14.8s6.5-14.8,14.4-14.8c4.5,0,8.7,2.1,11.4,5.8c1.1,1.5,0.8,3.7-0.7,4.9
	c-1.6,1.1-3.7,0.8-4.9-0.7c-1.4-2-3.5-3-5.9-3c-4.1,0-7.4,3.5-7.4,7.8c0,4.3,3.4,7.8,7.4,7.8c2.3,0,4.5-1.1,5.9-3.1
	c1.1-1.6,3.3-1.9,4.9-0.8s1.9,3.3,0.8,4.9C-141.5,421.7-145.7,423.9-150.3,423.9z"/>
<path class="st0" d="M-139.6,413c-1.5-1.1-3.5-0.8-4.7,0.6c-0.7,1.1-1.7,1.9-2.8,2.5c0,0-0.1,0-0.1,0.1c-0.2,0.2-0.5,0.2-0.6,0.3
	c-0.1,0.1-0.2,0.1-0.2,0.1c-0.2,0.1-0.2,0.1-0.4,0.2s-0.3,0.1-0.5,0.2c-0.1,0.1-0.2,0.1-0.3,0.1c-0.2,0.1-0.4,0.1-0.5,0.1
	c-0.1,0-0.2,0-0.2,0c-0.2,0-0.4,0.1-0.6,0.1h-0.1l0,0l0,0h-0.1c-0.2,0-0.4,0-0.6-0.1c-0.1,0-0.2,0-0.2,0c-0.2-0.1-0.4-0.1-0.5-0.1
	c-0.1,0-0.2-0.1-0.3-0.1c-0.2-0.1-0.3-0.1-0.5-0.2s-0.2-0.1-0.4-0.2c-0.1-0.1-0.2-0.1-0.2-0.1c-0.2-0.1-0.5-0.2-0.6-0.3
	c0,0-0.1,0-0.1-0.1c-1.1-0.5-2-1.4-2.8-2.5c-1.2-1.4-3.2-1.7-4.7-0.6c-1.5,1.1-1.9,3.3-0.8,4.9c1.1,1.4,2.3,2.6,3.6,3.5
	c0.1,0.1,0.2,0.1,0.2,0.2c0.2,0.1,0.3,0.2,0.5,0.3c0.1,0.1,0.2,0.2,0.3,0.2c0.2,0.1,0.2,0.2,0.4,0.2c0.2,0.1,0.2,0.2,0.4,0.2
	s0.2,0.2,0.4,0.2c0.2,0.1,0.2,0.2,0.4,0.2c0.2,0.1,0.5,0.2,0.7,0.3c0.1,0.1,0.2,0.1,0.3,0.1c0.2,0.1,0.3,0.2,0.5,0.2
	c0.1,0.1,0.2,0.1,0.3,0.1c0.2,0.1,0.4,0.1,0.5,0.2c0.1,0.1,0.2,0.1,0.2,0.1c0.2,0.1,0.4,0.1,0.5,0.2c0.1,0,0.2,0.1,0.2,0.1
	c0.2,0.1,0.5,0.1,0.6,0.1c0.1,0,0.2,0,0.2,0.1c0.2,0.1,0.5,0.1,0.8,0.1c0.1,0,0.1,0,0.1,0c0.3,0,0.5,0.1,0.8,0.1
	c0.3,0,0.5,0,0.8-0.1c0.1,0,0.1,0,0.1,0c0.2,0,0.5-0.1,0.8-0.1c0.1,0,0.2,0,0.2-0.1c0.2-0.1,0.5-0.1,0.6-0.1c0.1,0,0.2-0.1,0.2-0.1
	c0.2-0.1,0.4-0.1,0.5-0.2c0.1,0,0.2-0.1,0.2-0.1c0.2-0.1,0.4-0.1,0.5-0.2c0.1-0.1,0.2-0.1,0.3-0.1c0.2-0.1,0.3-0.2,0.5-0.2
	c0.1-0.1,0.2-0.1,0.3-0.1c0.2-0.1,0.5-0.2,0.7-0.3c0.2-0.1,0.2-0.2,0.4-0.2c0.2-0.1,0.2-0.2,0.4-0.2c0.2-0.1,0.2-0.2,0.4-0.2
	c0.2-0.1,0.2-0.2,0.4-0.2c0.2-0.1,0.2-0.2,0.3-0.2c0.2-0.1,0.3-0.2,0.5-0.3c0.1-0.1,0.2-0.1,0.2-0.2c1.4-0.9,2.6-2.1,3.6-3.5
	C-137.6,416.3-138,414.2-139.6,413z"/>
<circle class="st0" cx="-150.2" cy="409.3" r="4"/>
<path class="st0" d="M-124.9,405.9l-6.5,17.1h-3.6l2.2-5.2l-4.7-11.8h3.9l2.7,8.4l2.5-8.4L-124.9,405.9L-124.9,405.9z"/>
<path class="st0" d="M-111.9,409.7v3.9c0,1.7-0.5,2.8-1.4,3.5s-2.6,1.1-4.7,1.1c-2.3,0-3.9-0.4-4.7-1.1s-1.3-1.9-1.3-3.4v-13h3.6
	v6.5c0.2-0.5,0.6-0.9,1.2-1.1c0.6-0.2,1.4-0.3,2.7-0.3c1.1,0,1.9,0.1,2.5,0.2c0.6,0.2,1.1,0.5,1.4,0.8c0.3,0.4,0.5,0.8,0.6,1.2
	C-111.9,408.4-111.9,409-111.9,409.7z M-115.4,414.1v-4.4c0-0.8-0.2-1.3-0.5-1.4c-0.3-0.2-1-0.3-2.1-0.3c-1.1,0-1.7,0.2-2,0.4
	c-0.3,0.3-0.5,0.7-0.5,1.4v4.4c0,0.7,0.2,1.2,0.5,1.4s1,0.4,2,0.4c1.1,0,1.7-0.2,2-0.4C-115.6,415.3-115.4,414.8-115.4,414.1z"/>
<path class="st0" d="M-99,412.8h-7.7v1.1c0,0.7,0.2,1.1,0.7,1.4s1.4,0.5,2.7,0.5c1.2,0,2.6-0.2,4-0.5v2.3c-1.6,0.3-3.1,0.5-4.7,0.5
	c-4.2,0-6.3-1.3-6.3-3.9v-4.3c0-1.6,0.5-2.6,1.4-3.3c1-0.7,2.5-1,4.4-1c1.8,0,3.2,0.3,4.1,1c0.9,0.6,1.4,1.7,1.4,3.3L-99,412.8
	L-99,412.8L-99,412.8z M-102.5,410.8v-1.7c0-0.4-0.2-0.7-0.5-0.9c-0.3-0.2-0.8-0.3-1.7-0.3c-0.9,0-1.4,0.2-1.8,0.3
	c-0.3,0.2-0.5,0.5-0.5,0.9v1.7H-102.5z"/>
<path class="st0" d="M-89.5,408.7h-1.2c-1,0-1.7,0.2-2.2,0.5c-0.5,0.3-0.8,0.8-0.8,1.6v7.1h-3.6v-11.9h3.5v2.1
	c0-0.6,0.4-1.1,1.1-1.7c0.7-0.5,1.4-0.7,2.1-0.7h1.3L-89.5,408.7L-89.5,408.7z"/>
<path class="st0" d="M-71.5,412.2v1.1c0,1-0.2,1.7-0.5,2.4c-0.4,0.6-0.9,1.1-1.6,1.4c-0.7,0.4-1.4,0.6-2.2,0.7
	c-0.8,0.2-1.7,0.2-2.9,0.2c-1.6,0-3.4-0.2-5.6-0.5v-2.9c2.7,0.5,4.6,0.6,5.7,0.6c2.1,0,3.2-0.5,3.2-1.7v-1.1c0-0.5-0.2-0.9-0.5-1.2
	s-0.8-0.3-1.7-0.3h-1.9c-3.5,0-5.3-1.4-5.3-4.2v-1.2c0-1.4,0.6-2.4,1.7-3.1c1.1-0.7,3-1,5.6-1c1.2,0,2.9,0.2,5,0.3v2.9
	c-2.5-0.3-4.2-0.5-5.1-0.5c-1.3,0-2.1,0.2-2.6,0.3c-0.5,0.2-0.7,0.6-0.7,1.1v1.1c0,0.8,0.7,1.3,2.1,1.3h2c1.9,0,3.2,0.4,4,1.1
	C-71.8,409.9-71.5,410.9-71.5,412.2z"/>
<path class="st0" d="M-58.9,412.8h-7.7v1.1c0,0.7,0.2,1.1,0.7,1.4s1.4,0.5,2.7,0.5c1.2,0,2.6-0.2,4-0.5v2.3
	c-1.5,0.3-3.1,0.5-4.7,0.5c-4.2,0-6.3-1.3-6.3-3.9v-4.3c0-1.6,0.5-2.6,1.4-3.3c1-0.7,2.5-1,4.4-1c1.8,0,3.2,0.3,4.1,1
	c0.9,0.6,1.4,1.7,1.4,3.3L-58.9,412.8L-58.9,412.8z M-62.4,410.8v-1.7c0-0.4-0.2-0.7-0.5-0.9c-0.3-0.2-0.8-0.3-1.7-0.3
	c-0.9,0-1.4,0.2-1.8,0.3s-0.5,0.5-0.5,0.9v1.7H-62.4z"/>
<path class="st0" d="M-45.2,412.8h-7.7v1.1c0,0.7,0.2,1.1,0.7,1.4s1.4,0.5,2.7,0.5c1.2,0,2.6-0.2,4-0.5v2.3
	c-1.5,0.3-3.1,0.5-4.7,0.5c-4.2,0-6.3-1.3-6.3-3.9v-4.3c0-1.6,0.5-2.6,1.4-3.3c1-0.7,2.5-1,4.4-1c1.8,0,3.2,0.3,4.1,1
	c0.9,0.6,1.4,1.7,1.4,3.3V412.8z M-48.7,410.8v-1.7c0-0.4-0.2-0.7-0.5-0.9s-0.8-0.3-1.7-0.3c-0.9,0-1.4,0.2-1.8,0.3
	c-0.3,0.2-0.5,0.5-0.5,0.9v1.7H-48.7z"/>
<path class="st0" d="M-40.4,417.8H-44v-17.2h3.6V417.8z M-31.9,417.8h-4.1l-4.3-6.7l3.9-5.2h4.1l-4.1,5.2L-31.9,417.8z"/>
<g>
	<path class="st0" d="M-31.2,403.9v-2.9h-1v-0.2h2.3v0.2h-1.1v2.9H-31.2z"/>
	<path class="st0" d="M-26.6,403.9v-2.8l-1.1,2.8h-0.2l-1.1-2.8v2.8h-0.3v-3.2h0.4l1.1,2.6l1.1-2.6h0.4v3.2H-26.6z"/>
</g>
</svg>
