<?xml version="1.0" encoding="utf-8"?>
<!-- Generator: Adobe Illustrator 19.0.0, SVG Export Plug-In . SVG Version: 6.00 Build 0)  -->
<svg version="1.1" id="Layer_1" xmlns="http://www.w3.org/2000/svg" xmlns:xlink="http://www.w3.org/1999/xlink" x="0px" y="0px"
	 viewBox="-242 371 126 52" style="enable-background:new -242 371 126 52;" xml:space="preserve">
<style type="text/css">
	.st0{fill:#37474F;}
	.st1{font-family:'OpenSans';}
	.st2{font-size:12px;}
</style>
<g>
	<text transform="matrix(1.002 0 0 1 -212.7466 389.9526)" class="st0 st1 st2">Designed by:</text>
</g>
<g>
	<g>
		<g>
			<path class="st0" d="M-200.3,398.4c0-0.5,0.4-0.8,0.8-0.8c0.5,0,0.8,0.4,0.8,0.8c0,0.4-0.4,0.8-0.8,0.8
				C-200,399.2-200.3,398.8-200.3,398.4L-200.3,398.4z"/>
		</g>
		<g>
			<g>
				<path class="st0" d="M-166.1,406.5c0-0.7-0.1-1.3-0.2-1.8c-0.1-0.5-0.3-1-0.6-1.3c-0.2-0.4-0.5-0.6-0.9-0.8
					c-0.3-0.2-0.7-0.3-1.1-0.3c-0.4,0-0.8,0.1-1.1,0.3c-0.3,0.2-0.6,0.4-0.9,0.8c-0.2,0.4-0.4,0.8-0.6,1.3c-0.1,0.5-0.2,1.1-0.2,1.8
					s0.1,1.3,0.2,1.8c0.1,0.5,0.3,1,0.6,1.3c0.3,0.4,0.5,0.6,0.9,0.8c0.3,0.2,0.7,0.3,1.1,0.3c0.4,0,0.7-0.1,1.1-0.3
					c0.3-0.2,0.6-0.4,0.9-0.8c0.2-0.4,0.4-0.8,0.6-1.3C-166.1,407.8-166.1,407.2-166.1,406.5L-166.1,406.5z M-164.8,407
					c0,0.6,0,3.8,0,3.9c-0.1,1.6-0.2,2.5-1.1,3.7c-0.9,1.2-1.9,1.7-3.4,2c-0.8,0.1-2.1,0-2.1,0v-1.4c0,0,1.3,0.2,2.1,0
					c1.1-0.3,1.7-0.7,2.4-1.5c0.7-0.9,0.7-2.2,0.8-2.8c-0.3,0.3-0.6,0.6-1,0.8c-0.5,0.3-1.1,0.4-1.7,0.4c-0.6,0-1.2-0.1-1.7-0.4
					c-0.5-0.3-0.9-0.7-1.3-1.2c-0.3-0.5-0.6-1.1-0.8-1.8c-0.2-0.7-0.3-1.5-0.3-2.3c0-0.8,0.1-1.6,0.3-2.3c0.2-0.7,0.5-1.3,0.8-1.8
					c0.4-0.5,0.8-0.9,1.3-1.2c0.5-0.3,1.1-0.4,1.7-0.4c0.6,0,1.2,0.1,1.7,0.4c0.5,0.3,0.9,0.7,1.3,1.2c0.3,0.5,0.6,1.1,0.8,1.8
					c0.2,0.7,0.3,1.5,0.3,2.3C-164.8,406.7-164.8,406.9-164.8,407L-164.8,407z"/>
			</g>
		</g>
		<g>
			<g>
				<path class="st0" d="M-175.2,406.5c0-0.7-0.1-1.3-0.2-1.8c-0.1-0.5-0.3-1-0.6-1.3c-0.2-0.4-0.5-0.6-0.9-0.8
					c-0.3-0.2-0.7-0.3-1.1-0.3c-0.4,0-0.8,0.1-1.1,0.3c-0.3,0.2-0.6,0.4-0.9,0.8c-0.2,0.4-0.4,0.8-0.6,1.3c-0.1,0.5-0.2,1.1-0.2,1.8
					s0.1,1.3,0.2,1.8c0.1,0.5,0.3,1,0.6,1.3c0.2,0.4,0.5,0.6,0.9,0.8c0.3,0.2,0.7,0.3,1.1,0.3c0.4,0,0.7-0.1,1.1-0.3
					c0.3-0.2,0.6-0.4,0.9-0.8c0.2-0.4,0.4-0.8,0.6-1.3C-175.3,407.8-175.2,407.2-175.2,406.5L-175.2,406.5z M-173.9,406.5
					c0,0.8-0.1,1.6-0.3,2.3c-0.2,0.7-0.5,1.3-0.8,1.8c-0.4,0.5-0.8,0.9-1.3,1.2c-0.5,0.3-1.1,0.4-1.7,0.4c-0.6,0-1.2-0.1-1.7-0.4
					c-0.5-0.3-0.9-0.7-1.3-1.2c-0.3-0.5-0.6-1.1-0.8-1.8c-0.2-0.7-0.3-1.4-0.3-2.3c0-0.8,0.1-1.6,0.3-2.3c0.2-0.7,0.5-1.3,0.8-1.8
					c0.4-0.5,0.8-0.9,1.3-1.2c0.5-0.3,1.1-0.4,1.7-0.4c0.6,0,1.2,0.1,1.7,0.4c0.5,0.3,0.9,0.7,1.3,1.2c0.4,0.5,0.6,1.1,0.8,1.8
					C-174,404.9-173.9,405.6-173.9,406.5L-173.9,406.5z"/>
			</g>
		</g>
		<g>
			<path class="st0" d="M-184,401.8c0.5-0.3,1.1-0.4,1.8-0.3l-0.1,1.3c0,0-0.2,0-0.5,0c-0.8,0.1-1.3,0.4-1.3,1.3v4.9
				c0,1.5-0.3,3.2-2.2,3.2c-2,0-2.2-2-2.2-3.5v-3.5c0-1.4-0.5-3.1-2.3-3.1c-1.8,0-2.1,1.7-2.1,3.1v3.5c0,1.5-0.2,3.5-2.2,3.5
				c-1.9,0-2.2-1.6-2.2-3.2v-8.4c0-0.9,0.1-1.3-1.1-1.4l0.1-1.3c0,0,0.2,0,0.5,0.1c1.6,0.3,1.8,1.2,1.8,2.7v8.4
				c0,1.6,0.4,1.9,0.9,1.9c1,0,0.9-1.6,0.9-2.2v-3.5c0-2.2,0.8-4.4,3.4-4.4c3.1,0,3.6,3.1,3.6,4.4v3.5c0,0.6-0.1,2.2,0.9,2.2
				c0.5,0,0.9-0.2,0.9-1.9v-8.4c0-2.1,1.3-3,3.2-3l0,1.3c0,0-0.3,0-0.6,0.1c-1.1,0.2-1.3,0.6-1.3,1.6L-184,401.8L-184,401.8z"/>
		</g>
		<g>
			<path class="st0" d="M-162.3,405.4v-1.4c0-1.1-0.8-1.4-1.8-1.3l-0.1-1.3c0,0,0.3,0,0.7,0c0.9,0.1,1.7,0.5,2.1,1.2
				c0.9-1.1,2.3-1.9,3.7-2.1c0.4-0.1,0.7-0.1,0.7-0.1l0.1,1.3c0,0-0.3,0-0.6,0.1c-1.6,0.2-3.5,1.6-3.5,3.4v3.5
				c0,1.5-0.2,3.5-2.2,3.5v-1.3c1,0,0.9-1.6,0.9-2.2L-162.3,405.4L-162.3,405.4z"/>
		</g>
		<g>
			<path class="st0" d="M-154.2,403.2c-0.8-0.8-1.4-1.5-1.4-2.6c0-3.9,6.1-4.1,6.1,0.1c0,3.8-5.8,4.3-5.8,7.5c0,1.5,1.3,2.7,2.8,2.8
				c2.4,0,3.6-2.5,2.2-4.3c-0.3-0.5-0.8-0.8-1.2-1.2l0.9-1c1.1,1,2.3,2.2,2.2,3.9c-0.1,2.2-1.9,4-4.2,4c-2.2,0-4.1-1.8-4.1-4.1
				c0-4,5.8-4.7,5.8-7.5c0-2.4-3.5-2.2-3.5-0.1c0,0.6,0.2,1,1,1.7L-154.2,403.2L-154.2,403.2z"/>
		</g>
	</g>
</g>
</svg>
